<svg id="Bun" xmlns="http://www.w3.org/2000/svg" viewBox="0 0 80 70"><title>Bun Logo</title><path id="Shadow" d="M71.09,20.74c-.16-.17-.33-.34-.5-.5s-.33-.34-.5-.5-.33-.34-.5-.5-.33-.34-.5-.5-.33-.34-.5-.5-.33-.34-.5-.5-.33-.34-.5-.5A26.46,26.46,0,0,1,75.5,35.7c0,16.57-16.82,30.05-37.5,30.05-11.58,0-21.94-4.23-28.83-10.86l.5.5.5.5.5.5.5.5.5.5.5.5.5.5C19.55,65.3,30.14,69.75,42,69.75c20.68,0,37.5-13.48,37.5-30C79.5,32.69,76.46,26,71.09,20.74Z"/><g id="Body"><path id="Background" d="M73,35.7c0,15.21-15.67,27.54-35,27.54S3,50.91,3,35.7C3,26.27,9,17.94,18.22,13S33.18,3,38,3s8.94,4.13,19.78,10C67,17.94,73,26.27,73,35.7Z" style="fill:#fbf0df"/><path id="Bottom_Shadow" data-name="Bottom Shadow" d="M73,35.7a21.67,21.67,0,0,0-.8-5.78c-2.73,33.3-43.35,34.9-59.32,24.94A40,40,0,0,0,38,63.24C57.3,63.24,73,50.89,73,35.7Z" style="fill:#f6dece"/><path id="Light_Shine" data-name="Light Shine" d="M24.53,11.17C29,8.49,34.94,3.46,40.78,3.45A9.29,9.29,0,0,0,38,3c-2.42,0-5,1.25-8.25,3.13-1.13.66-2.3,1.39-3.54,2.15-2.33,1.44-5,3.07-8,4.7C8.69,18.13,3,26.62,3,35.7c0,.4,0,.8,0,1.19C9.06,15.48,20.07,13.85,24.53,11.17Z" style="fill:#fffefc"/><path id="Top" d="M35.12,5.53A16.41,16.41,0,0,1,29.49,18c-.28.25-.06.73.3.59,3.37-1.31,7.92-5.23,6-13.14C35.71,5,35.12,5.12,35.12,5.53Zm2.27,0A16.24,16.24,0,0,1,39,19c-.12.35.31.65.55.36C41.74,16.56,43.65,11,37.93,5,37.64,4.74,37.19,5.14,37.39,5.49Zm2.76-.17A16.42,16.42,0,0,1,47,17.12a.33.33,0,0,0,.65.11c.92-3.49.4-9.44-7.17-12.53C40.08,4.54,39.82,5.08,40.15,5.32ZM21.69,15.76a16.94,16.94,0,0,0,10.47-9c.18-.36.75-.22.66.18-1.73,8-7.52,9.67-11.12,9.45C21.32,16.4,21.33,15.87,21.69,15.76Z" style="fill:#ccbea7;fill-rule:evenodd"/><path id="Outline" d="M38,65.75C17.32,65.75.5,52.27.5,35.7c0-10,6.18-19.33,16.53-24.92,3-1.6,5.57-3.21,7.86-4.62,1.26-.78,2.45-1.51,3.6-2.19C32,1.89,35,.5,38,.5s5.62,1.2,8.9,3.14c1,.57,2,1.19,3.07,1.87,2.49,1.54,5.3,3.28,9,5.27C69.32,16.37,75.5,25.69,75.5,35.7,75.5,52.27,58.68,65.75,38,65.75ZM38,3c-2.42,0-5,1.25-8.25,3.13-1.13.66-2.3,1.39-3.54,2.15-2.33,1.44-5,3.07-8,4.7C8.69,18.13,3,26.62,3,35.7c0,.4,0,.8,0,1.19C9.06,15.48,20.07,13.85,24.53,11.17Z" style="fill:none;stroke:#000;stroke-miterlimit:10;stroke-width:1px"/></g></svg>